<svg width="1200" height="630" viewBox="0 0 1200 630" fill="none" xmlns="http://www.w3.org/2000/svg">
  <defs>
    <linearGradient id="bg" x1="0" y1="0" x2="1200" y2="630" gradientUnits="userSpaceOnUse">
      <stop stop-color="#020617"/>
      <stop offset="1" stop-color="#0B1530"/>
    </linearGradient>
    <linearGradient id="brand" x1="250" y1="230" x2="930" y2="390" gradientUnits="userSpaceOnUse">
      <stop stop-color="#3B82F6"/>
      <stop offset="1" stop-color="#8B5CF6"/>
    </linearGradient>
  </defs>
  <rect width="1200" height="630" fill="url(#bg)"/>
  <g opacity="0.18">
    <path d="M0 80H1200M0 160H1200M0 240H1200M0 320H1200M0 400H1200M0 480H1200M0 560H1200" stroke="#3B82F6"/>
    <path d="M120 0V630M240 0V630M360 0V630M480 0V630M600 0V630M720 0V630M840 0V630M960 0V630M1080 0V630" stroke="#3B82F6"/>
  </g>
  <text x="120" y="230" fill="#E2E8F0" font-family="Arial, Helvetica, sans-serif" font-size="42" font-weight="700">
    &lt;KvLabStudio/&gt;
  </text>
  <text x="120" y="325" fill="url(#brand)" font-family="Arial, Helvetica, sans-serif" font-size="72" font-weight="800">
    Desarrollo web y software a medida
  </text>
  <text x="120" y="390" fill="#94A3B8" font-family="Arial, Helvetica, sans-serif" font-size="30" font-weight="500">
    Landing pages, automatizaciones y productos digitales listos para crecer.
  </text>
  <text x="120" y="500" fill="#CBD5E1" font-family="Arial, Helvetica, sans-serif" font-size="28" font-weight="600">
    www.kvlabstudio.com
  </text>
</svg>
